<mxfile host="65bd71144e">
    <diagram id="hospital-sample-management" name="医院样本信息管理系统用例图">
        <mxGraphModel dx="1166" dy="706" grid="1" gridSize="10" guides="1" tooltips="1" connect="1" arrows="1" fold="1" page="1" pageScale="1" pageWidth="827" pageHeight="1169" math="0" shadow="0">
            <root>
                <mxCell id="0"/>
                <mxCell id="1" parent="0"/>
                <mxCell id="system" value="医院样本信息管理系统" style="shape=rectangle;html=1;verticalAlign=top;fontStyle=1;whiteSpace=wrap;align=center;" parent="1" vertex="1">
                    <mxGeometry x="20" y="40" width="730" height="680" as="geometry"/>
                </mxCell>
                <mxCell id="uc1" value="采集管分组管理" style="ellipse;whiteSpace=wrap;html=1;" parent="1" vertex="1">
                    <mxGeometry x="170" y="90" width="140" height="70" as="geometry"/>
                </mxCell>
                <mxCell id="uc2" value="采集流程管理" style="ellipse;whiteSpace=wrap;html=1;" parent="1" vertex="1">
                    <mxGeometry x="280" y="210" width="140" height="70" as="geometry"/>
                </mxCell>
                <mxCell id="uc3" value="样本信息登记" style="ellipse;whiteSpace=wrap;html=1;" parent="1" vertex="1">
                    <mxGeometry x="330" y="345" width="140" height="70" as="geometry"/>
                </mxCell>
                <mxCell id="uc4" value="知情同意书管理" style="ellipse;whiteSpace=wrap;html=1;" parent="1" vertex="1">
                    <mxGeometry x="220" y="415" width="140" height="70" as="geometry"/>
                </mxCell>
                <mxCell id="uc5" value="样本入库管理" style="ellipse;whiteSpace=wrap;html=1;" parent="1" vertex="1">
                    <mxGeometry x="400" y="100" width="140" height="70" as="geometry"/>
                </mxCell>
                <mxCell id="uc6" value="样本出库管理" style="ellipse;whiteSpace=wrap;html=1;" parent="1" vertex="1">
                    <mxGeometry x="480" y="230" width="140" height="70" as="geometry"/>
                </mxCell>
                <mxCell id="uc7" value="编码规则设置" style="ellipse;whiteSpace=wrap;html=1;" parent="1" vertex="1">
                    <mxGeometry x="400" y="500" width="140" height="70" as="geometry"/>
                </mxCell>
                <mxCell id="uc8" value="数据脱敏设置" style="ellipse;whiteSpace=wrap;html=1;" parent="1" vertex="1">
                    <mxGeometry x="400" y="600" width="140" height="70" as="geometry"/>
                </mxCell>
                <mxCell id="edge1" value="" style="endArrow=none;html=1;rounded=0;" parent="1" source="actor1" target="uc1" edge="1">
                    <mxGeometry relative="1" as="geometry"/>
                </mxCell>
                <mxCell id="edge2" value="" style="endArrow=none;html=1;rounded=0;" parent="1" source="actor1" target="uc2" edge="1">
                    <mxGeometry relative="1" as="geometry"/>
                </mxCell>
                <mxCell id="edge3" value="" style="endArrow=none;html=1;rounded=0;" parent="1" source="actor1" target="uc3" edge="1">
                    <mxGeometry relative="1" as="geometry"/>
                </mxCell>
                <mxCell id="edge4" value="" style="endArrow=none;html=1;rounded=0;" parent="1" source="actor1" target="uc4" edge="1">
                    <mxGeometry relative="1" as="geometry"/>
                </mxCell>
                <mxCell id="edge5" value="" style="endArrow=none;html=1;rounded=0;" parent="1" source="actor1" target="uc5" edge="1">
                    <mxGeometry relative="1" as="geometry"/>
                </mxCell>
                <mxCell id="edge6" value="" style="endArrow=none;html=1;rounded=0;" parent="1" source="actor1" target="uc6" edge="1">
                    <mxGeometry relative="1" as="geometry"/>
                </mxCell>
                <mxCell id="edge7" value="" style="endArrow=none;html=1;rounded=0;" parent="1" source="actor2" target="uc7" edge="1">
                    <mxGeometry relative="1" as="geometry"/>
                </mxCell>
                <mxCell id="edge8" value="" style="endArrow=none;html=1;rounded=0;" parent="1" source="actor2" target="uc8" edge="1">
                    <mxGeometry relative="1" as="geometry"/>
                </mxCell>
                <mxCell id="include1" value="&lt;&lt;include&gt;&gt;" style="endArrow=open;endSize=12;dashed=1;html=1;rounded=0;" parent="1" source="uc3" target="uc2" edge="1">
                    <mxGeometry relative="1" as="geometry"/>
                </mxCell>
                <mxCell id="include2" value="&lt;&lt;include&gt;&gt;" style="endArrow=open;endSize=12;dashed=1;html=1;rounded=0;" parent="1" source="uc5" target="uc3" edge="1">
                    <mxGeometry relative="1" as="geometry"/>
                </mxCell>
                <mxCell id="actor1" value="医护人员" style="shape=umlActor;verticalLabelPosition=bottom;verticalAlign=top;html=1;" parent="1" vertex="1">
                    <mxGeometry x="60" y="300" width="30" height="60" as="geometry"/>
                </mxCell>
                <mxCell id="actor2" value="系统管理员" style="shape=umlActor;verticalLabelPosition=bottom;verticalAlign=top;html=1;" parent="1" vertex="1">
                    <mxGeometry x="60" y="500" width="30" height="60" as="geometry"/>
                </mxCell>
            </root>
        </mxGraphModel>
    </diagram>
</mxfile>